<svg xmlns="http://www.w3.org/2000/svg" xmlns:xlink="http://www.w3.org/1999/xlink" viewBox="0 0 2824.74 624.27"><defs><style>.cls-1{fill:none;}.cls-2{clip-path:url(#clip-path);}.cls-3{opacity:0.5;}.cls-4{clip-path:url(#clip-path-3);}.cls-5{fill:#fff;}.cls-6{opacity:0.8;}.cls-7{clip-path:url(#clip-path-5);}.cls-8{opacity:0.2;}.cls-9{clip-path:url(#clip-path-6);}</style><clipPath id="clip-path" transform="translate(0 0)"><rect class="cls-1" width="2824.74" height="624.27"/></clipPath><clipPath id="clip-path-3" transform="translate(0 0)"><rect class="cls-1" y="73.44" width="416.18" height="155.83"/></clipPath><clipPath id="clip-path-5" transform="translate(0 0)"><rect class="cls-1" x="258.93" y="229.27" width="157.24" height="394.52"/></clipPath><clipPath id="clip-path-6" transform="translate(0 0)"><rect class="cls-1" y="229.27" width="299.42" height="101.22"/></clipPath></defs><g id="Layer_2" data-name="Layer 2"><g id="Layer_1-2" data-name="Layer 1"><g class="cls-2"><g class="cls-2"><g class="cls-3"><g class="cls-4"><polygon class="cls-5" points="0 229.27 258.93 229.27 416.18 229.27 416.18 73.44 0 229.27"/></g></g></g><polygon class="cls-5" points="416.17 73.44 416.17 624.27 612.97 0 416.17 73.44"/><g class="cls-2"><g class="cls-6"><g class="cls-7"><polygon class="cls-5" points="416.18 229.27 258.93 229.27 416.18 623.79 416.18 229.27"/></g></g><g class="cls-8"><g class="cls-9"><polygon class="cls-5" points="0 229.27 299.42 330.49 258.93 229.27 0 229.27"/></g></g><path class="cls-5" d="M953.82,478.79a69.32,69.32,0,0,1-11.3,8.48,120.66,120.66,0,0,1-20.71,10.35,172.41,172.41,0,0,1-31.55,8.95,225.11,225.11,0,0,1-42.37,3.77c-30.6,0-57.44-5.18-80-14.6-22.6-9.89-41-23.54-55.56-41.43a168.13,168.13,0,0,1-32-62.61c-7.06-24-10.36-50.85-10.36-79.57s3.77-55.55,11.3-80,18.36-45.67,33.43-63.56c14.59-17.89,33.42-32,55.55-41.9s48.49-15.06,78.62-15.06a206.8,206.8,0,0,1,40,3.76c11.77,2.83,22.6,5.65,31.54,9.42a136.35,136.35,0,0,1,22.13,11.3,103.75,103.75,0,0,1,13.18,9.88,41,41,0,0,1,8.95,10.83,28.44,28.44,0,0,1,3.76,13.66q0,11.3-8.47,22.59a159.28,159.28,0,0,1-18.83,21.19q-7.07-7.07-15.54-14.12a114.35,114.35,0,0,0-19.3-12.72,110.87,110.87,0,0,0-24-8.94,117.34,117.34,0,0,0-30.13-3.77c-19.3,0-35.78,3.77-49,11.77A93.55,93.55,0,0,0,771.62,217a127.6,127.6,0,0,0-16.94,42.85,244.14,244.14,0,0,0-5.18,49.43,259.34,259.34,0,0,0,5.18,51.31,118.52,118.52,0,0,0,17.89,43.32,92.17,92.17,0,0,0,32.95,30.13c13.65,7.53,30.13,11.3,50.37,11.3a112.54,112.54,0,0,0,29.19-3.77,121.4,121.4,0,0,0,23.54-9.89,146.51,146.51,0,0,0,17.89-11.77c5.18-4.23,9.42-8,12.71-10.82,2.36,2.82,4.71,6.12,8,9.88a92.64,92.64,0,0,1,8.47,11.77c2.83,4.24,4.71,8.48,7.06,12.71a28.31,28.31,0,0,1,2.83,11.3,26.57,26.57,0,0,1-2.83,12.71c-1.88,3.3-5.17,7.07-8.94,11.3M1247.59,435c0,30.13,4.24,52.26,13.18,65.91a87.57,87.57,0,0,1-19.3,5.65,121.71,121.71,0,0,1-18.83,1.88c-13.65,0-24-2.82-31.07-8s-11.77-13.18-13.66-23.07c-8.47,8.95-19.3,16.48-33.42,22.6-13.65,6.12-30.6,8.94-50.38,8.94a117.86,117.86,0,0,1-31.07-4.23,79.9,79.9,0,0,1-28.25-14.13c-8.47-6.59-15.06-15.06-20.71-25.89-5.18-10.83-8-24-8-39.55,0-19.3,4.7-35.31,14.12-47.55a100.29,100.29,0,0,1,35.31-28.72,167.26,167.26,0,0,1,45.67-14.59,445.1,445.1,0,0,1,45.19-5.18,132.56,132.56,0,0,1,13.65-.47h12.25V318.25c0-14.59-3.77-24.95-11.77-31.54-8-6.12-20.72-9.42-38.14-9.42-16.48,0-31.07,2.83-43.78,8a309.81,309.81,0,0,0-37.67,18.36c-5.17-6.59-9.88-13.65-12.71-21.66-3.29-8-4.7-13.65-4.7-17.42,0-5.18,2.82-10.35,8.94-15.53s14.12-9.42,24.48-13.66,22.13-7.06,35.78-9.88a239.86,239.86,0,0,1,42.37-3.77c20.72,0,38.14,1.88,52.26,6.12s25.89,10.83,34.84,19.3a74.9,74.9,0,0,1,19.3,33c3.77,13.18,5.65,28.72,5.65,46.14Zm-73.44-66.38h-8a45.77,45.77,0,0,0-8,.47c-9.41.94-18.83,1.88-28.25,3.29a77.85,77.85,0,0,0-25,8,55.54,55.54,0,0,0-17.89,15.06c-4.71,6.12-7.06,14.13-7.06,23.54,0,10.83,2.83,19.78,9,27.31s16.47,11.3,31.07,11.3a75.58,75.58,0,0,0,20.71-2.83,64.74,64.74,0,0,0,17.42-7.53,51.78,51.78,0,0,0,11.77-9.89q4.24-5.64,4.24-9.88Zm216.09-113c6.12-7.06,15.54-14.6,28.72-22.13s29.19-11.3,49-11.3a116.47,116.47,0,0,1,40.49,7.06c12.71,4.71,24,12.72,33.9,23.07,9.88,10.83,17.89,25,23.53,42.37,6.13,17.42,9,39.08,9,65,0,29.66-3.3,54.61-10.36,73.92s-15.53,34.84-26.36,45.66c-10.83,11.3-23.07,19.31-36.25,24a119.54,119.54,0,0,1-40,7.07,103.78,103.78,0,0,1-28.72-3.77,94.82,94.82,0,0,1-20.71-8.47,63.92,63.92,0,0,1-13.18-9c-2.83-2.82-5.18-5.18-5.65-6.12V624.27h-78.16V230.69a28.62,28.62,0,0,1,7.07-.94c2.35-.48,5.18-.48,8-.95,3.3,0,6.59-.47,10.83-.47,12.71,0,23.54,1.89,32.48,6.12,8.48,4.24,14.13,11.3,16.48,21.19m103.57,105.93a172.74,172.74,0,0,0-2.82-32,84.19,84.19,0,0,0-9.42-25.89,47.63,47.63,0,0,0-17.89-17c-7.53-4.24-16.47-6.12-27.3-6.12-16,0-27.31,3.3-33.43,9-6.12,6.12-9.41,12.71-9.41,20.24V431.71c2.82,3.3,8.47,6.59,16.47,10.83s17,6.12,27.31,6.12c19.3,0,33.43-7.53,42.84-23.07,8.95-15.06,13.65-36.25,13.65-64m141.24,98.86c-2.82-7.53-4.24-15.53-5.18-24a229.79,229.79,0,0,1-.94-25.42V145a52,52,0,0,1,8.47-.94c2.83-.47,5.65-.47,8.48-.94,2.82,0,6.12-.47,8.94-.47a81.21,81.21,0,0,1,18.36,1.88,34.59,34.59,0,0,1,16.48,7.06c5.18,3.3,8.95,8,12.24,14.13a54.1,54.1,0,0,1,4.71,23.07v41h80.51v57.9h-80V410.06c0,26.83,10.83,40,32.49,40a53.16,53.16,0,0,0,15.06-2.35q7.06-2.82,12.71-5.65a51.72,51.72,0,0,0,9.89-6.59c2.82-2.35,4.71-4.24,6.12-5.18,5.65,8.48,10.36,15.54,13.18,21.66s4.71,11.77,4.71,17.42c0,5.18-1.88,9.88-6.12,14.59a62.2,62.2,0,0,1-16.95,13.18c-7.06,4.24-16,7.54-26.36,9.89a152.76,152.76,0,0,1-33.9,3.77c-23.54,0-42.37-4.71-55.55-13.66-12.24-9.88-21.66-21.65-27.31-36.72m349.8-7.53c9.41,0,17.89-.94,25.42-3.3a122.23,122.23,0,0,0,19.77-7.53,92.27,92.27,0,0,0,15.07-9.89q6.36-5.64,11.3-9.88c4.71,5.65,9.41,13.18,14.59,22.13s7.53,16.47,7.53,22.12c0,8.48-4.7,16-14.12,23.07-8,6.12-19.3,11.3-34.37,16-14.59,4.23-32,6.59-51.78,6.59a204.24,204.24,0,0,1-53.2-7.06,122.23,122.23,0,0,1-46.61-24c-13.65-11.3-24.48-26.84-33-46.14s-12.71-43.78-12.71-73q0-36,11.3-62.15c7.53-17.42,17.42-32,29.66-43.31a121.31,121.31,0,0,1,42.37-25.42,151.07,151.07,0,0,1,48-8c21.19,0,39.55,3.3,54.61,9.89A96.06,96.06,0,0,1,2055,259.88a104.62,104.62,0,0,1,20.25,38.6,162,162,0,0,1,6.12,45.67v8a73.06,73.06,0,0,1-.47,9.89c0,3.29-.47,6.59-.47,9.88a29.63,29.63,0,0,1-.94,7.54h-169c1.41,21.18,8,38.6,19.78,52.72,11.29,13.66,29.66,20.72,54.61,20.72m26.36-116.29c0-18.36-3.76-33.42-10.83-44.72s-19.77-17.42-38.13-17.42c-16,0-28.25,5.65-37.66,16.48s-14.13,25.89-14.13,45.66Zm206.21-79.56a133.17,133.17,0,0,1,8.94-11.3,57.46,57.46,0,0,1,14.13-11.3,109.46,109.46,0,0,1,18.36-8.47,63.2,63.2,0,0,1,21.65-3.3c4.71,0,9.42.47,14.6.94a62.55,62.55,0,0,1,14.12,4.24,27.28,27.28,0,0,1,10.83,8.48,21.06,21.06,0,0,1,4.24,13.18c0,8.47-1.89,17.89-6.12,28.72A226,226,0,0,1,2305.45,306a100.5,100.5,0,0,0-19.3-12.24c-6.59-2.82-14.12-4.23-23.07-4.23-11.77,0-21.65,3.29-29.66,10.35s-12.24,15.07-12.24,24.95v185.5H2143V230.22a28.56,28.56,0,0,1,7.06-.95c2.36-.47,5.18-.47,8-.94,2.82,0,6.59-.47,10.83-.47,12.24,0,23.06,2.36,32,7.06,8.47,5.18,14.12,12.24,16.48,22.13m221.74,0a133.17,133.17,0,0,1,8.94-11.3,57.46,57.46,0,0,1,14.13-11.3,109.46,109.46,0,0,1,18.36-8.47,63.2,63.2,0,0,1,21.65-3.3c4.71,0,9.42.47,14.6.94a62.4,62.4,0,0,1,14.12,4.24,27.21,27.21,0,0,1,10.83,8.48,21,21,0,0,1,4.24,13.18c0,8.47-1.89,17.89-6.12,28.72A227.61,227.61,0,0,1,2527.2,306a100.56,100.56,0,0,0-19.31-12.24c-6.59-2.82-14.12-4.23-23.06-4.23-11.77,0-21.66,3.29-29.66,10.35s-12.24,15.07-12.24,24.95v185.5h-78.16V230.22a28.57,28.57,0,0,1,7.07-.95c2.35-.47,5.17-.47,8-.94,2.82,0,6.59-.47,10.83-.47,12.24,0,23.07,2.36,32,7.06,8.48,5.18,14.12,12.24,16.48,22.13m372.39,178c0,30.13,4.24,52.26,13.19,65.91a87.79,87.79,0,0,1-19.31,5.65,121.71,121.71,0,0,1-18.83,1.88c-13.65,0-24-2.82-31.07-8s-11.77-13.18-13.65-23.07c-8.48,8.95-19.31,16.48-33.43,22.6-13.65,6.12-30.6,8.94-50.37,8.94a117.88,117.88,0,0,1-31.08-4.23,79.86,79.86,0,0,1-28.24-14.13c-8.48-6.59-15.07-15.06-20.72-25.89-5.18-10.83-8-24-8-39.55,0-19.3,4.71-35.31,14.12-47.55a100.29,100.29,0,0,1,35.31-28.72,167.26,167.26,0,0,1,45.67-14.59,445.42,445.42,0,0,1,45.19-5.18,132.66,132.66,0,0,1,13.66-.47h12.24V318.25c0-14.59-3.77-24.95-11.77-31.54-8-6.12-20.72-9.42-38.14-9.42-16.47,0-31.07,2.83-43.78,8a309,309,0,0,0-37.66,18.36c-5.18-6.59-9.89-13.65-12.71-21.66-3.3-8-4.71-13.65-4.71-17.42,0-5.18,2.82-10.35,8.94-15.53s14.13-9.42,24.48-13.66,22.13-7.06,35.78-9.88a240,240,0,0,1,42.37-3.77c20.72,0,38.14,1.88,52.26,6.12s25.9,10.83,34.84,19.3a74.71,74.71,0,0,1,19.3,33c3.77,13.18,5.65,28.72,5.65,46.14Zm-73.44-66.38h-8a45.83,45.83,0,0,0-8,.47c-9.41.94-18.83,1.88-28.24,3.29a77.91,77.91,0,0,0-25,8A55.54,55.54,0,0,0,2651,395.46c-4.7,6.12-7.06,14.13-7.06,23.54,0,10.83,2.83,19.78,9,27.31s16.47,11.3,31.07,11.3a75.58,75.58,0,0,0,20.71-2.83,64.6,64.6,0,0,0,17.42-7.53,51.78,51.78,0,0,0,11.77-9.89q4.24-5.64,4.24-9.88Z" transform="translate(0 0)"/></g></g></g></g></svg>