<svg xmlns="http://www.w3.org/2000/svg" viewBox="0 0 373.55 398.51"><defs><style>.cls-1{fill:#d7d7ff;}.cls-1,.cls-2{stroke:#5c5cff;stroke-linecap:round;stroke-linejoin:round;stroke-width:0.75px;}.cls-2,.cls-3{fill:none;}</style></defs><g id="Layer_2" data-name="Layer 2"><g id="Layer_1-2" data-name="Layer 1"><path class="cls-1" d="M322.59,160.56a.44.44,0,0,0-.25.08.47.47,0,0,0-.18.19.48.48,0,0,0-.07.26.43.43,0,0,0,.07.25l2.2,3.82a.47.47,0,0,0,.19.18.43.43,0,0,0,.25.07.58.58,0,0,0,.26-.06.55.55,0,0,0,.19-.18l2.48-4a.55.55,0,0,0,.09-.28.47.47,0,0,0-.07-.28.45.45,0,0,0-.21-.2.49.49,0,0,0-.29-.06Z"/><path class="cls-2" d="M332.39,154.24a9.16,9.16,0,0,1-3.12-1.64,9,9,0,0,1-3.27-6,8.84,8.84,0,0,1,.34-3.47,7.22,7.22,0,0,1,3.52-4.22,7.35,7.35,0,0,1,5.5-.57,5.89,5.89,0,0,1,2,1.06,5.6,5.6,0,0,1,1.44,1.73,5.74,5.74,0,0,1,.66,2.14,5.81,5.81,0,0,1-.22,2.23,4.65,4.65,0,0,1-2.25,2.71,4.71,4.71,0,0,1-3.53.35,3.78,3.78,0,0,1-1.27-.67,3.67,3.67,0,0,1-1.34-2.48A3.59,3.59,0,0,1,331,144a3,3,0,0,1,.55-1,2.72,2.72,0,0,1,.89-.72,2.88,2.88,0,0,1,1.1-.34,3,3,0,0,1,1.15.12,2.28,2.28,0,0,1,.82.42,2.51,2.51,0,0,1,.59.71,2.26,2.26,0,0,1,.27.87,2.32,2.32,0,0,1-.09.91,1.89,1.89,0,0,1-.91,1.09,1.94,1.94,0,0,1-1.42.15"/><path class="cls-2" d="M341.62,169.81l-.47-1.35a1.62,1.62,0,0,1-.09-.61,1.57,1.57,0,0,1,.16-.6,1.62,1.62,0,0,1,.38-.49,1.78,1.78,0,0,1,.54-.3l1.28-.44a1.55,1.55,0,0,0,.81-.82,1.53,1.53,0,0,0,0-1.15l-.42-1.21a1.54,1.54,0,0,1,.07-1.19,1.57,1.57,0,0,1,.88-.8l1.28-.44a1.57,1.57,0,0,0,.53-.31,1.41,1.41,0,0,0,.36-.48,1.67,1.67,0,0,0,.16-.59,1.54,1.54,0,0,0-.09-.6l-.43-1.21a1.58,1.58,0,0,1,.07-1.19,1.54,1.54,0,0,1,.89-.79l1.28-.45a1.59,1.59,0,0,0,.88-.79,1.54,1.54,0,0,0,.07-1.19l-.44-1.28"/><rect class="cls-3" width="373.55" height="398.51"/></g></g></svg>