<svg xmlns="http://www.w3.org/2000/svg" viewBox="0 0 97.65 51.85"><defs><style>.cls-1{fill:#3b456a;}</style></defs><g id="Layer_2" data-name="Layer 2"><g id="Layer_1-2" data-name="Layer 1"><path class="cls-1" d="M2.51,51.83C17.12,50,32.62,46.74,44.94,38.2a37.48,37.48,0,0,0,9.28-9,44.74,44.74,0,0,0,7.46-.59C72,27,81.85,21.64,89.79,14.83q-2,4.89-4,9.77a2.5,2.5,0,0,0,1.75,3.09,2.58,2.58,0,0,0,3.1-1.75L97.51,9.16A2.51,2.51,0,0,0,95.09,6L75,7.32c-3.22.21-3.24,5.25,0,5l11-.73A56.72,56.72,0,0,1,67.8,21.91a42.74,42.74,0,0,1-10.73,2.24,23.59,23.59,0,0,0,1.64-6.06c.87-6.57-2.14-13.51-8.24-16.47-5.09-2.47-11-1.91-16,.3-4.4,1.91-8.34,5.83-8.62,10.83-.37,6.54,6.55,10.79,11.7,13a41.32,41.32,0,0,0,10.66,3A38.47,38.47,0,0,1,39.11,36C28.13,42.45,15,45.22,2.51,46.8A2.57,2.57,0,0,0,0,49.32a2.51,2.51,0,0,0,2.51,2.51M34.63,18.5A11.64,11.64,0,0,1,32,16.05a8.18,8.18,0,0,1-.85-1.46c.12.25-.32-1.37-.26-.89a5.09,5.09,0,0,1,1.59-4.35A13.13,13.13,0,0,1,37.77,6c4.36-1.58,9.46-1.43,12.95,1.88a9.33,9.33,0,0,1,.68.73l.14.16.07.1a11.16,11.16,0,0,1,1,1.58c.09.17.17.34.25.51,0,0,.21.53.26.67a16,16,0,0,1,.53,2c0,.12.09.59.11.72s.05.47.06.71a16.45,16.45,0,0,1,0,2.22c0,.14-.08.71-.09.82q-.06.42-.15.84a18.57,18.57,0,0,1-.66,2.4c-.11.31-.23.63-.35.93l0,0c-.07.16-.15.32-.22.49-.23.48-.48,1-.74,1.42a35.85,35.85,0,0,1-5.61-.84,33.21,33.21,0,0,1-11.3-4.81"/></g></g></svg>