<?xml version="1.0" encoding="utf-8"?>
<!-- Generator: Adobe Illustrator 26.0.2, SVG Export Plug-In . SVG Version: 6.00 Build 0)  -->
<svg version="1.1" id="Layer_1" xmlns="http://www.w3.org/2000/svg" xmlns:xlink="http://www.w3.org/1999/xlink" x="0px" y="0px"
	 viewBox="0 0 295 126.7" style="enable-background:new 0 0 295 126.7;" xml:space="preserve">
<style type="text/css">
	.st0{fill:none;}
	.st1{fill:#C0C6D9;}
</style>
<rect x="-1" y="-1" class="st0" width="297" height="127"/>
<g id="ba1SUA_00000023260745940248870290000017758935467418893985_">
	<g>
		<path class="st1" d="M203.3,48.8c4.6-5.3,10.5-6.9,17.1-6.3c5.3,0.5,9.9,2.4,13.6,6.4c6.6,7.1,6.8,20,0.5,27.3
			c-4.1,4.7-9.4,6.7-15.6,7c-6.1,0.3-11.4-1.6-15.8-6.2c0,6.3,0,12.6,0,19c-2.4,0-4.7,0-7,0c0-0.4-0.1-0.8-0.1-1.2
			c0-16.7,0-33.5,0-50.2c0-1.1,0.3-1.4,1.4-1.4c1.6,0.1,3.2,0,4.8,0c0.7,0,1,0.2,1,0.9c0,1.4,0,2.9,0,4.3
			C203.1,48.6,203.2,48.7,203.3,48.8z M217.4,76.8c0.6,0,1.3-0.1,2-0.1c6.1-0.6,10.4-4.2,11.7-9.8c0.6-2.7,0.6-5.4,0-8.1
			c-1.1-4.6-4-7.7-8.6-9.1c-3.2-1-6.5-1-9.7-0.2c-2.9,0.7-5.3,2.1-7.1,4.5c-3.6,4.7-3.5,13.2,0.1,17.9
			C208.7,75.6,212.8,76.7,217.4,76.8z"/>
		<path class="st1" d="M136.2,49.1c0-0.7,0-1.1,0-1.6c0-5.5,0-11,0-16.5c0-1,0.2-1.3,1.2-1.3c1.9,0.1,3.9,0,5.9,0
			c0,0.5,0.1,1,0.1,1.4c0,16.6,0,33.2,0,49.8c0,1-0.2,1.5-1.4,1.4c-1.5-0.1-3-0.1-4.5,0c-1.1,0.1-1.5-0.2-1.5-1.4
			c0.1-1.2,0-2.5,0-4.2c-4.7,5.3-10.5,7.2-17.1,6.6c-6.6-0.6-12.1-3.3-15.8-9c-5.2-8.2-3.6-20.4,3.3-26.6
			C113.4,41.6,128.5,39.8,136.2,49.1z M107.8,62.9c0.1,4.4,1.2,8.4,4.8,11.2c3.3,2.5,7.2,3.1,11.2,2.7c6.2-0.6,10.4-3.8,11.7-9.3
			c0.5-2,0.6-4.1,0.5-6.1c-0.2-3.9-1.7-7.2-4.9-9.6c-4.9-3.7-13.8-3.7-18.6,0.1C109,54.7,107.9,58.6,107.8,62.9z"/>
		<path class="st1" d="M151,82.3c0-13.1,0-26,0-38.9c0.5,0,0.8-0.1,1.2-0.1c7.3,0,14.6,0,21.9,0c1,0,1.4,0.2,1.3,1.3
			c-0.1,1.6,0,3.3,0,5c-5.8,0-11.6,0-17.5,0c0,0.6,0,1,0,1.5c0,10,0,19.9,0,29.9c0,1-0.2,1.4-1.3,1.3C154.9,82.2,153,82.3,151,82.3z
			"/>
		<path class="st1" d="M51.8,62c1.9,0,3.6,0,5.3,0c0.9,0,0.8,0.6,0.8,1.1c0.2,4.9,2.3,8.8,6.3,11.5c4.5,3,9.2,3.4,14,0.9
			c4.9-2.5,7.5-6.6,7.9-12.1c0-0.4,0-0.8,0.1-1.2c0-0.1,0.1-0.1,0.2-0.3c1.7,0,3.5,0,5.3,0.1c0.2,0,0.6,0.7,0.6,1.1
			c-0.2,7.5-3.6,13.4-10,17.2c-6.6,3.9-13.5,4-20.2,0.1c-6.6-3.8-10.1-9.7-10.3-17.4C51.8,62.8,51.8,62.5,51.8,62z"/>
		<path class="st1" d="M182,43.4c2.3,0,4.6,0,6.9,0c0,13,0,25.9,0,38.9c-2.3,0-4.6,0-6.9,0C182,69.3,182,56.4,182,43.4z"/>
		<path class="st1" d="M72,29.4c4.4,4.2,8.3,8.6,12.1,13.6c-1.6,0-3-0.2-4.3,0c-2.6,0.4-4.4-0.6-5.6-2.8c-0.5-1-1.4-1.9-2.2-3
			c-1.3,1.7-2.5,3.2-3.6,4.8c-0.5,0.7-1.1,1-1.9,1c-2.1-0.1-4.1,0-6.6,0C63.7,38,67.6,33.6,72,29.4z"/>
		<path class="st1" d="M185.5,38.3c-2.5,0-4.3-1.8-4.3-4.2c0-2.5,1.8-4.3,4.2-4.3c2.5,0,4.3,1.8,4.3,4.2
			C189.8,36.4,188,38.2,185.5,38.3z"/>
		<path class="st1" d="M59.9,56.7c-2.3,0-4.1-1.8-4.1-4.1c0-2.2,1.7-4,4-4c2.3,0,4.1,1.7,4.1,4C63.9,54.9,62.1,56.7,59.9,56.7z"/>
		<path class="st1" d="M68,52.6c0-2.3,1.8-4.1,4.1-4c2.3,0,4,1.8,4,4c0,2.3-1.8,4.1-4,4.1C69.7,56.7,67.9,55,68,52.6z"/>
		<path class="st1" d="M80.1,52.7c0-2.3,1.7-4.1,4.1-4.1c2.3,0,4,1.7,4,4c0,2.3-1.7,4.1-4,4.1C81.9,56.7,80.1,55,80.1,52.7z"/>
	</g>
</g>
</svg>
