<?xml version="1.0" encoding="utf-8"?>
<!-- Generator: Adobe Illustrator 26.0.2, SVG Export Plug-In . SVG Version: 6.00 Build 0)  -->
<svg version="1.1" id="Layer_1" xmlns="http://www.w3.org/2000/svg" xmlns:xlink="http://www.w3.org/1999/xlink" x="0px" y="0px"
	 viewBox="0 0 295 126.7" style="enable-background:new 0 0 295 126.7;" xml:space="preserve">
<style type="text/css">
	.st0{fill:#C0C6D9;}
</style>
<g id="b4iDOG.tif">
	<g>
		<path class="st0" d="M146.8,26.1c1.6,0.2,3.1,0.5,4.9,0.7c-0.8,1.6-1.5,3.1-2.2,4.6c-1.5,3.1-3,6.2-4.4,9.3
			c-0.3,0.7-0.7,1-1.5,1.1c-10,0.7-17.6,7.4-19.7,17.2c-2.3,10.9,5.4,22.4,16.4,24.5c6.7,1.3,12.6-0.3,18-4.6c2.6,4.5,5.2,9,8,13.8
			c-2,1.1-3.9,2.4-5.9,3.4c-21.7,10.4-47.6-3-51.8-26.7c-3.6-20,9.9-39.3,29.8-42.7c1.4-0.2,2.7-0.4,4.1-0.6
			C143.8,26.1,145.3,26.1,146.8,26.1z"/>
		<path class="st0" d="M170.2,88.9c-2.2-3.8-4.3-7.5-6.4-11.1c-0.6-1-1.2-1.9-1.6-2.9c-0.6-1.3-1.5-1.6-2.8-1.6
			c-4.9,0.1-9.8,0-14.7,0c-0.4,0-0.9,0-1.5,0c0.5-0.8,0.9-1.5,1.3-2.2c2.4-4.1,4.8-8.3,7.1-12.4c0.4-0.7,0.9-1,1.7-1
			c5.3,0,10.6,0,15.9,0c0.7,0,1.3,0.1,1.7,0.9c2.7,4.7,5.4,9.3,8,14c0.2,0.4,0.3,1,0.1,1.4c-2.7,4.8-5.5,9.6-8.3,14.4
			C170.6,88.5,170.5,88.6,170.2,88.9z"/>
		<path class="st0" d="M171.6,47.8c0,1.6,0,2.9,0,4.3c-5.5,0-10.9,0-16.5,0c-0.1-3.8,0.6-7.3,3.7-9.8c1.5-1.2,3.3-2.1,4.9-3.1
			c0.8-0.5,1.7-1,2.4-1.7c1.4-1.5,0.8-3.5-1.1-4.2c-1.9-0.6-4.2,0.1-5.6,1.7c-0.4,0.5-0.8,1-1.2,1.6c-1-1-1.9-2.1-3-3.2
			c1-2,2.7-3.4,4.9-4.2c2.5-0.9,5.1-0.8,7.5,0.3c4.7,2.1,5.5,8,1.6,11.3c-1,0.9-2.3,1.5-3.5,2.2c-1,0.6-2.1,1.1-3.1,1.7
			c-1,0.6-1.8,1.5-2,3C164.4,47.8,167.9,47.8,171.6,47.8z"/>
	</g>
</g>
</svg>
