<?xml version="1.0" encoding="utf-8"?>
<!-- Generator: Adobe Illustrator 26.0.2, SVG Export Plug-In . SVG Version: 6.00 Build 0)  -->
<svg version="1.1" id="Layer_1" xmlns="http://www.w3.org/2000/svg" xmlns:xlink="http://www.w3.org/1999/xlink" x="0px" y="0px"
	 viewBox="0 0 48 48" style="enable-background:new 0 0 48 48;" xml:space="preserve">
<style type="text/css">
	.st0{fill:none;}
	.st1{clip-path:url(#SVGID_00000062176242228141569410000018128409488261554313_);}
	.st2{fill:none;stroke:#242A35;stroke-width:3;stroke-linecap:round;stroke-linejoin:round;}
</style>
<g id="Layer_2_00000133497938956862941320000007967964244559614366_">
	<g id="Layer_1-2">
		<rect class="st0" width="48" height="48"/>
		<g>
			<defs>
				<rect id="SVGID_1_" width="48" height="48"/>
			</defs>
			<clipPath id="SVGID_00000041276741227232334960000003006752299468687025_">
				<use xlink:href="#SVGID_1_"  style="overflow:visible;"/>
			</clipPath>
			<g style="clip-path:url(#SVGID_00000041276741227232334960000003006752299468687025_);">
				<line class="st2" x1="1.5" y1="46.5" x2="46.5" y2="46.5"/>
				<path class="st2" d="M12,32.5H6c-0.8,0-1.5,0.7-1.5,1.5v12.5h9V34C13.5,33.2,12.8,32.5,12,32.5z"/>
				<path class="st2" d="M27,24.5h-6c-0.8,0-1.5,0.7-1.5,1.5v20.5h9V26C28.5,25.2,27.8,24.5,27,24.5z"/>
				<path class="st2" d="M42,16.5h-6c-0.8,0-1.5,0.7-1.5,1.5v28.5h9V18C43.5,17.2,42.8,16.5,42,16.5z"/>
				<line class="st2" x1="8.4" y1="18.5" x2="40.5" y2="3.9"/>
				<polyline class="st2" points="38.1,10.3 40.5,3.9 34.1,1.5 				"/>
			</g>
		</g>
	</g>
</g>
</svg>
