<?xml version="1.0" encoding="utf-8"?>
<!-- Generator: Adobe Illustrator 26.0.2, SVG Export Plug-In . SVG Version: 6.00 Build 0)  -->
<svg version="1.1" id="Layer_1" xmlns="http://www.w3.org/2000/svg" xmlns:xlink="http://www.w3.org/1999/xlink" x="0px" y="0px"
	 viewBox="0 0 300 150" style="enable-background:new 0 0 300 150;" xml:space="preserve">
<style type="text/css">
	.st0{fill:#C0C6D9;}
</style>
<path class="st0" d="M64.1,53.7h-8.7v42.6h8.7V53.7z"/>
<path class="st0" d="M83,37.5h-8.7v32.4H83V37.5z"/>
<path class="st0" d="M83,80.1h-8.7v32.4H83V80.1z"/>
<path class="st0" d="M101.8,53.7h-8.7v42.6h8.7V53.7z"/>
<path class="st0" d="M184.5,88.1c-0.4,1.3-1,2.5-1.8,3.6c-0.8,1.1-1.7,2.1-2.8,2.9c-1.1,0.8-2.4,1.5-3.8,1.9
	c-1.5,0.5-3.1,0.7-4.6,0.7c-1.9,0-3.8-0.3-5.5-1c-1.7-0.7-3.3-1.7-4.7-3c-1.4-1.4-2.5-3-3.2-4.8c-0.8-2.1-1.2-4.3-1.2-6.5
	c0-2.1,0.4-4.2,1.1-6.2c0.7-1.8,1.7-3.4,3-4.8c1.3-1.3,2.8-2.4,4.4-3.1c1.6-0.7,3.4-1.1,5.2-1.1c2,0,4,0.3,5.9,1.1
	c1.7,0.7,3.2,1.7,4.4,3.1c1.2,1.4,2.1,3,2.7,4.8c0.6,2,1,4.1,0.9,6.2c0,0.4,0,0.7,0,1c0,0.3,0,0.5-0.1,0.8h-21.8
	c0,1.2,0.3,2.4,0.7,3.6c0.4,1,1,2,1.8,2.8c0.8,0.8,1.7,1.4,2.8,1.8c1.1,0.4,2.2,0.6,3.4,0.6c2.4,0,4.2-0.6,5.4-1.7
	c1.2-1.1,2.2-2.6,2.7-4.2L184.5,88.1z M178.8,78.9c0-2-0.8-3.8-2.1-5.3c-1.3-1.4-3.3-2.1-5.8-2.1c-1.1,0-2.2,0.2-3.2,0.6
	c-0.9,0.4-1.7,1-2.4,1.7c-0.7,0.7-1.2,1.5-1.6,2.4c-0.4,0.8-0.6,1.8-0.7,2.7H178.8z"/>
<path class="st0" d="M146.8,96.3V77.4h-19.5v18.9h-5.9V53.7h5.9v18.2h19.5V53.7h5.9v42.6H146.8z"/>
<path class="st0" d="M184.4,88.1c-1.6,5.1-6.2,9.1-13,9.1c-7.7,0-14.5-5.6-14.5-15.4c0-9.1,6.5-15.3,13.8-15.3
	c8.9,0,13.9,6.1,13.9,15.1c0,0.6,0,1.2-0.1,1.8h-21.7c0.1,5.2,3.8,8.8,8.7,8.8c4.7,0,7-2.6,8.1-5.8L184.4,88.1z M178.7,78.9
	c-0.1-4.1-2.8-7.4-7.9-7.4c-4.7,0-7.6,3.7-7.9,7.4H178.7z"/>
<path class="st0" d="M196.2,79.8l7.8-1.1c1.7-0.2,2.2-1.1,2.2-2.2c0-2.8-1.9-5.2-6.2-5.2c-4,0-6.2,2.5-6.5,5.8l-5.4-1.3
	c0.6-5.5,5.6-9.4,11.8-9.4c8.6,0,12,4.9,12,10.6v14.5c0,1.6,0.1,3.2,0.4,4.7h-5.5c-0.2-1.3-0.3-2.6-0.3-3.9c-1.3,2-4.1,4.8-9.3,4.8
	c-5.9,0-9.7-4.1-9.7-8.6C187.4,83.4,191.2,80.5,196.2,79.8z M206.2,83.9v-1.3l-8.8,1.3c-2.4,0.4-4.2,1.7-4.2,4.3
	c0,2.2,1.8,4.2,4.7,4.2C202.5,92.4,206.2,90.2,206.2,83.9z"/>
<path class="st0" d="M217.2,107.7V67.4h5.5v4.5c1.6-2.9,5-5.2,9.7-5.2c8.6,0,13.3,6.7,13.3,15.1c0,8.6-5,15.3-13.5,15.3
	c-4.4,0-7.8-2.1-9.4-4.7v15.3H217.2z M231.3,71.7c-5.2,0-8.6,4.3-8.6,10.1c0,5.9,3.4,10.2,8.6,10.2c5.2,0,8.5-4.3,8.5-10.2
	C239.8,76,236.6,71.7,231.3,71.7z"/>
</svg>
