<?xml version="1.0" encoding="utf-8"?>
<!-- Generator: Adobe Illustrator 26.0.2, SVG Export Plug-In . SVG Version: 6.00 Build 0)  -->
<svg version="1.1" id="Layer_1" xmlns="http://www.w3.org/2000/svg" xmlns:xlink="http://www.w3.org/1999/xlink" x="0px" y="0px"
	 viewBox="0 0 295 126.7" style="enable-background:new 0 0 295 126.7;" xml:space="preserve">
<style type="text/css">
	.st0{fill:#C0C6D9;}
</style>
<g id="TpgEsj.tif">
	<g>
		<path class="st0" d="M120,76.7c0-0.5,0-1,0-1.4c0-4.2,0-8.5,0-12.7c0-0.5,0-1.1,0-1.6c-0.3-3.7-2.1-5.5-5.6-5.5
			c-3.6,0-6.1,2.2-6.2,5.7c-0.1,4.7-0.1,9.5,0,14.2c0,1.1-0.3,1.4-1.4,1.3c-1.4-0.1-2.8,0-4.2,0c0-0.5-0.1-0.9-0.1-1.3
			c0-11.3,0-22.5,0-33.8c0-1,0.3-1.4,1.3-1.3c1,0.1,1.9,0.1,2.9,0c1.1-0.1,1.5,0.2,1.5,1.4c-0.1,3.7,0,7.5,0,11.2c0,0.4,0,0.8,0,1.6
			c0.5-0.5,0.7-0.8,1-1.1c3.4-3.6,10.3-3.8,13.9-0.3c1.7,1.7,2.5,3.8,2.6,6c0.1,5.5,0.1,11,0.1,16.6c0,0.3-0.4,0.8-0.6,0.8
			C123.3,76.7,121.7,76.7,120,76.7z"/>
		<path class="st0" d="M209.1,64.1c0-1.4,0.1-2.5,0-3.7c-0.4-3.9-3-5.7-6.8-5c-2.3,0.4-3.9,1.8-4.7,4c-0.1,0.3-0.2,0.7-0.3,1
			c0,0-0.1,0-0.2,0.1c-1.5-0.3-3.1-0.7-4.9-1c0.4-2,1.3-3.7,2.6-5.1c3.7-4.2,11.9-4.9,16.4-1.6c2.2,1.7,3.4,4,3.5,6.7
			c0.1,5.7,0,11.3,0,17.1c-1.7,0-3.4,0-5.3,0c0-0.9,0-1.8,0-2.9c-0.3,0.2-0.4,0.3-0.5,0.4c-3.5,4.6-10.5,3.8-13.7,1.6
			c-4.9-3.3-4.2-10.4,1.3-13c4.1-1.9,8.2-1.7,11.9,1C208.6,63.7,208.8,63.8,209.1,64.1z M202.6,73.5c2.8-0.2,4.8-1.6,6.3-3.7
			c0.2-0.3,0.3-0.9,0.1-1.3c-1.7-2.9-7.2-4-9.8-2c-1.9,1.5-1.9,4.4,0.2,5.7C200.3,72.8,201.5,73.1,202.6,73.5z"/>
		<path class="st0" d="M156.1,64.1c0,7.7-5.5,13.3-13.2,13.3c-7.7,0-13.3-5.5-13.3-13.3c0-7.7,5.6-13.3,13.3-13.3
			C150.6,50.7,156.1,56.3,156.1,64.1z M150.4,64.1c-0.1-0.9-0.2-1.8-0.3-2.6c-0.7-3.6-3.4-6-6.7-6.1c-3.9-0.1-6.5,1.8-7.5,5.6
			c-0.6,2.5-0.6,4.9,0.3,7.3c0.9,2.4,2.7,4.1,5.3,4.5c2.8,0.4,5.3-0.2,7.1-2.6C149.9,68.3,150.3,66.2,150.4,64.1z"/>
		<path class="st0" d="M167.2,43.9c0,2.6,0,5,0,7.5c3.4,0,6.6,0,10,0c0,1.6,0,3,0,4.6c-3.3,0-6.5,0-9.9,0c0,0.5-0.1,0.8-0.1,1.2
			c0,3.8,0,7.6,0,11.5c0,0.2,0,0.3,0,0.5c0,1.3,0.3,2.6,1.7,3.1c1.2,0.5,2.5,0,3.5-1.4c0.7-0.8,1.2-1.8,1.8-2.8
			c1.4,0.7,2.7,1.4,4.1,2.1c-2.4,6.1-6.8,8-11.8,6.9c-2.7-0.6-4.6-2.8-4.8-5.8c-0.2-2.2-0.2-4.5-0.2-6.7c0-2.8,0-5.5,0-8.4
			c-1.3,0-2.5,0-3.8,0c0-1.6,0-3.1,0-4.7c1.3,0,2.6,0,4,0c0.4-2.3,0.8-4.4,1.2-6.6c0.1-0.7,0.3-1,1-0.9
			C164.9,44,166,43.9,167.2,43.9z"/>
		<path class="st0" d="M174.2,86.3c0.7-1.4,1.3-2.8,2-4.2c0.8,0.5,1.4,1,2.2,1.4c1.9,0.8,3.4-0.2,3.5-2.2c0-0.5,0-1.1,0-1.6
			c0-8.9,0-17.8,0-26.6c0-0.5,0-0.9,0-1.5c1.8,0,3.6,0,5.6,0c0,0.4,0.1,0.8,0.1,1.2c0,9.1,0,18.3,0,27.4c0,1,0,1.9-0.2,2.9
			c-0.7,3.7-3.8,5.8-7.9,5.4C177.5,88.2,175.8,87.7,174.2,86.3z"/>
		<path class="st0" d="M234.5,61.6c0-1.1,0.1-2,0-2.8c-0.1-1.3-0.6-2.5-2-3c-1.4-0.5-2.8-0.2-3.9,0.8c-1.5,1.4-2.3,3.2-2.4,5.2
			c-0.2,2.9-0.2,5.8-0.2,8.7c0,2,0,4,0,6.1c-1.9,0-3.6,0-5.5,0c0-8.4,0-16.7,0-25.2c1.7,0,3.4,0,5.3,0c0,1.2,0,2.5,0,3.7
			c0.1,0,0.2,0,0.3,0.1c0.3-0.4,0.6-0.9,0.9-1.3c2.5-3.4,7.8-4.1,10.9-1.3c2.2,1.9,3.1,6.6,1.7,9c-0.1,0.2-0.5,0.4-0.7,0.4
			C237.3,61.9,235.9,61.8,234.5,61.6z"/>
		<path class="st0" d="M79.1,53.1c2.4,0,4.6,0,6.9,0c0,4.8-1.6,8.9-5.4,11.8c-1.7,1.3-3.6,2.4-5.5,3.5c-3.3,1.8-5.6,4.1-5.5,8.1
			c-2.3,0-4.5,0-6.9,0c-0.1-2.6,0.5-5,1.6-7.3c1.4-2.8,3.7-4.7,6.4-6.2c1.1-0.7,2.2-1.3,3.4-2C77.3,59.4,79.3,57,79.1,53.1z"/>
		<path class="st0" d="M60.6,63.8c-2.4,0-4.5,0-6.9,0c-0.2-2.7,0.5-5.3,1.7-7.6c1.6-2.9,4.1-4.7,6.9-6.4c1.4-0.8,2.8-1.6,4.2-2.5
			c2.1-1.3,3.3-3.3,3.5-5.8c0-0.4,0.1-0.8,0.2-1.2c2.2,0,4.5,0,6.8,0c0,4.7-1.5,8.8-5.2,11.7c-1.8,1.4-3.8,2.6-5.9,3.7
			C62.6,57.5,60.3,59.8,60.6,63.8z"/>
		<path class="st0" d="M184.6,47c-2,0-3.4-1.5-3.4-3.4c0-1.9,1.6-3.4,3.6-3.3c1.9,0.1,3.4,1.5,3.4,3.4C188.2,45.6,186.6,47,184.6,47
			z"/>
	</g>
</g>
</svg>
