<svg xmlns="http://www.w3.org/2000/svg" xmlns:xlink="http://www.w3.org/1999/xlink" viewBox="0 0 48.19 48.01"><defs><style>.cls-1{fill:none;}.cls-2{clip-path:url(#clip-path);}.cls-3{fill:#5c5cff;}</style><clipPath id="clip-path" transform="translate(0 0)"><rect class="cls-1" width="48.19" height="48.01"/></clipPath></defs><g id="Layer_2" data-name="Layer 2"><g id="Layer_1-2" data-name="Layer 1"><g class="cls-2"><path class="cls-3" d="M43.5,39a1.5,1.5,0,0,1-1.5-1.5v-6a1.5,1.5,0,0,1,3,0v6A1.5,1.5,0,0,1,43.5,39Z" transform="translate(0 0)"/><path class="cls-3" d="M4.5,39A1.5,1.5,0,0,1,3,37.51v-21A4.51,4.51,0,0,1,7.5,12H15a1.5,1.5,0,0,1,0,3H7.5A1.5,1.5,0,0,0,6,16.51v21A1.5,1.5,0,0,1,4.5,39Z" transform="translate(0 0)"/><path class="cls-3" d="M40.5,48H7.5A7.5,7.5,0,0,1,0,40.51v-3A1.5,1.5,0,0,1,1.5,36H18.83a1.48,1.48,0,0,1,1.3.76,4.56,4.56,0,0,0,1.66,1.66,4.46,4.46,0,0,0,6.08-1.66,1.48,1.48,0,0,1,1.3-.76H46.5a1.5,1.5,0,0,1,1.5,1.5v3A7.5,7.5,0,0,1,40.5,48ZM3,39v1.5A4.5,4.5,0,0,0,7.5,45h33a4.5,4.5,0,0,0,4.5-4.5V39H30a7.47,7.47,0,0,1-9.68,2A7.6,7.6,0,0,1,18,39Z" transform="translate(0 0)"/><path class="cls-3" d="M18,29.51a1.5,1.5,0,0,1-1.34-2.16L20.5,19.6A14.22,14.22,0,0,1,37.75.6l.09,0,.3.09a14.3,14.3,0,0,1,9.4,17.88A14.39,14.39,0,0,1,27.28,27l-8.86,2.42A1.33,1.33,0,0,1,18,29.51ZM33.68,3A11.24,11.24,0,0,0,23.51,19a1.52,1.52,0,0,1,0,1.3l-2.66,5.39L27.07,24a1.46,1.46,0,0,1,1.14.14,11.32,11.32,0,0,0,16.47-6.42A11.31,11.31,0,0,0,37.25,3.58l-.34-.09-.14-.05A11,11,0,0,0,33.68,3Z" transform="translate(0 0)"/><path class="cls-3" d="M39,10.52a1.51,1.51,0,0,1-1.06-.45,1.34,1.34,0,0,1-.32-.49,1.41,1.41,0,0,1-.09-.86,1.61,1.61,0,0,1,.09-.29,2.18,2.18,0,0,1,.14-.25,1.21,1.21,0,0,1,.41-.41.94.94,0,0,1,.26-.14,2.29,2.29,0,0,1,.28-.09,1.47,1.47,0,0,1,.59,0l.28.09a1.1,1.1,0,0,1,.26.14,1.24,1.24,0,0,1,.22.18,1.37,1.37,0,0,1,.19.23l.14.25a1.57,1.57,0,0,1,.08.29,1.39,1.39,0,0,1,0,.3,1.36,1.36,0,0,1-.11.56,1.51,1.51,0,0,1-.33.49,1.58,1.58,0,0,1-.48.33A1.62,1.62,0,0,1,39,10.52Z" transform="translate(0 0)"/><path class="cls-3" d="M39,12a2.25,2.25,0,1,1,2.25-2.25A2.25,2.25,0,0,1,39,12Zm0-3a.75.75,0,1,0,.75.75A.76.76,0,0,0,39,9Z" transform="translate(0 0)"/><path class="cls-3" d="M27,21a1.5,1.5,0,0,1-1.5-1.5v-9a1.5,1.5,0,1,1,3,0v9A1.5,1.5,0,0,1,27,21Z" transform="translate(0 0)"/><path class="cls-3" d="M39,21a1.5,1.5,0,0,1-1.5-1.5V15a1.5,1.5,0,1,1,3,0v4.5A1.5,1.5,0,0,1,39,21Z" transform="translate(0 0)"/><path class="cls-3" d="M33,16.51H27a1.5,1.5,0,1,1,0-3h6a1.5,1.5,0,0,1,0,3Z" transform="translate(0 0)"/><path class="cls-3" d="M33,21a1.5,1.5,0,0,1-1.5-1.5v-9a1.5,1.5,0,1,1,3,0v9A1.5,1.5,0,0,1,33,21Z" transform="translate(0 0)"/></g></g></g></svg>