<svg xmlns="http://www.w3.org/2000/svg" xmlns:xlink="http://www.w3.org/1999/xlink" viewBox="0 0 48 48.08"><defs><style>.cls-1{fill:none;}.cls-2{clip-path:url(#clip-path);}.cls-3{fill:#5c5cff;}</style><clipPath id="clip-path" transform="translate(0 0)"><rect class="cls-1" width="48" height="48.08"/></clipPath></defs><g id="Layer_2" data-name="Layer 2"><g id="Layer_1-2" data-name="Layer 1"><g class="cls-2"><path class="cls-3" d="M22.5,34.5H3.76A3.77,3.77,0,0,1,0,30.77v-27A3.75,3.75,0,0,1,1.12,1.07,3.79,3.79,0,0,1,3.77,0h33A3.77,3.77,0,0,1,40.5,3.73V9a1.5,1.5,0,0,1-3,0V3.74A.76.76,0,0,0,36.74,3h-33a.68.68,0,0,0-.54.21A.74.74,0,0,0,3,3.73v27a.76.76,0,0,0,.76.74H22.5a1.5,1.5,0,0,1,0,3Z" transform="translate(0 0)"/><path class="cls-3" d="M17,12.5H1.5a1.5,1.5,0,0,1,0-3H17a1.5,1.5,0,0,1,0,3Z" transform="translate(0 0)"/><path class="cls-3" d="M23.77,48.08a3,3,0,0,1-1.43-.37,2.93,2.93,0,0,1-1.44-1.79,3,3,0,0,1,.24-2.28L30,29.56V21a3,3,0,0,1,3-3h3a3,3,0,0,1,3,3V29.5l8.39,14v0a3,3,0,0,1-.08,3.11,2.94,2.94,0,0,1-2.54,1.43h-21ZM33,21v8.58a3,3,0,0,1-.43,1.55l-8.84,14,21.05-.08,1.32-.8-1.29.77-8.38-14A3.05,3.05,0,0,1,36,29.51V21Z" transform="translate(0 0)"/><path class="cls-3" d="M41.12,37.5H27.7a1.5,1.5,0,0,1,0-3H41.12a1.5,1.5,0,1,1,0,3Z" transform="translate(0 0)"/><path class="cls-3" d="M43.5,19.5A1.5,1.5,0,0,1,42,18V12a1.5,1.5,0,0,1,3,0v6A1.5,1.5,0,0,1,43.5,19.5Z" transform="translate(0 0)"/><path class="cls-3" d="M46.5,16.5h-6a1.5,1.5,0,0,1,0-3h6a1.5,1.5,0,0,1,0,3Z" transform="translate(0 0)"/><path class="cls-3" d="M23.5,21.5A1.5,1.5,0,0,1,22,20V14a1.5,1.5,0,0,1,3,0v6A1.5,1.5,0,0,1,23.5,21.5Z" transform="translate(0 0)"/><path class="cls-3" d="M26.5,18.5h-6a1.5,1.5,0,0,1,0-3h6a1.5,1.5,0,0,1,0,3Z" transform="translate(0 0)"/></g></g></g></svg>