<?xml version="1.0" encoding="utf-8"?>
<!-- Generator: Adobe Illustrator 26.0.2, SVG Export Plug-In . SVG Version: 6.00 Build 0)  -->
<svg version="1.1" id="Layer_1" xmlns="http://www.w3.org/2000/svg" xmlns:xlink="http://www.w3.org/1999/xlink" x="0px" y="0px"
	 viewBox="0 0 150 150" style="enable-background:new 0 0 150 150;" xml:space="preserve">
<style type="text/css">
	.st0{fill:#5C5CFF;}
</style>
<g transform="matrix(2,0,0,2,0,0)">
	<g>
		<path class="st0" d="M67.7,65.3h-9.4c-1.1,0-2-0.9-2-2s0.9-2,2-2h9.4c1.5,0,2.7-1.2,2.7-2.7V7.4c0-1.7-1.4-3-3.1-3.1H7.1
			c-1.7,0-3,1.4-3,3v50.9c0,1.7,1.4,3,3.1,3h9c1.1,0,2,0.9,2,2s-0.9,2-2,2h-9c-3.9,0-7-3.2-7-7V7.4c0-3.9,3.2-7,7-7h60.3
			c3.9,0,7,3.2,7,7v51.2C74.4,62.3,71.4,65.3,67.7,65.3z"/>
	</g>
	<g>
		<path class="st0" d="M72.4,18.4H2.1c-1.1,0-2-0.9-2-2s0.9-2,2-2h70.3c1.1,0,2,0.9,2,2S73.5,18.4,72.4,18.4z"/>
	</g>
	<g>
		<path class="st0" d="M37.3,50.9C37.2,50.9,37.2,50.9,37.3,50.9C28.2,50.7,21,43.1,21.2,34c0-2.3,0.4-4.5,1.3-6.7
			c0.3-0.8,1-1.2,1.9-1.2h25.8c0.8,0,1.5,0.5,1.8,1.2c0.9,2.1,1.3,4.4,1.3,6.7C53.6,43.1,46.4,50.7,37.3,50.9
			C37.3,50.9,37.3,50.9,37.3,50.9z M25.8,30.1c-0.4,1.3-0.6,2.6-0.6,3.9c0,0,0,0,0,0.1C25,41,30.4,46.7,37.3,46.9
			c6.8-0.2,12.2-5.9,12.1-12.8c0,0,0,0,0-0.1c0-1.3-0.2-2.7-0.6-3.9H25.8z"/>
	</g>
	<g>
		<path class="st0" d="M37.3,65.3c-1.1,0-2-0.9-2-2V48.9c0-1.1,0.9-2,2-2s2,0.9,2,2v14.4C39.3,64.4,38.4,65.3,37.3,65.3z"/>
	</g>
	<g>
		<path class="st0" d="M49,74.7H25.5c-0.6,0-1.2-0.3-1.6-0.8s-0.5-1.1-0.3-1.7c1.7-6.2,7.1-10.6,13.6-10.9c0.1,0,0.1,0,0.2,0
			c6.5,0.3,11.9,4.6,13.6,10.9c0.2,0.6,0,1.2-0.3,1.7C50.2,74.4,49.6,74.7,49,74.7z M28.5,70.7H46c-1.8-3.1-5-5.2-8.8-5.4
			C33.5,65.5,30.3,67.5,28.5,70.7z"/>
	</g>
	<g>
		<path class="st0" d="M19.1,50.9c-0.6,0-1.1-0.2-1.5-0.7c-3.7-4.2-5.7-9.5-5.7-15.1c0-1.1,0.9-2,2-2h9.4c1.1,0,2,0.9,2,2
			s-0.9,2-2,2h-7.3c0.4,3.9,2,7.5,4.6,10.5c0.7,0.8,0.7,2.1-0.2,2.8C20,50.8,19.5,50.9,19.1,50.9z"/>
	</g>
	<g>
		<path class="st0" d="M55.2,51.3c-0.5,0-1-0.2-1.4-0.5c-0.8-0.8-0.9-2-0.1-2.8c2.8-3,4.5-6.8,4.9-10.8h-7.4c-1.1,0-2-0.9-2-2
			s0.9-2,2-2h9.5c1.1,0,2,0.9,2,2c0,5.8-2.1,11.3-6.1,15.5C56.3,51.1,55.7,51.3,55.2,51.3z"/>
	</g>
</g>
</svg>
