<svg xmlns="http://www.w3.org/2000/svg" viewBox="0 0 139.3 54.36"><defs><style>.cls-1{fill:#fff;}</style></defs><g id="Layer_2" data-name="Layer 2"><g id="Layer_1-2" data-name="Layer 1"><g id="bgNq7R.tif"><path class="cls-1" d="M74.3,37.8a37.85,37.85,0,0,1-3.9,3.1c-4.6,2.5-10.9,1.3-14.8-2.6-5.8-6-5.6-17.7.5-23.4,3.9-3.6,8.5-4.3,13.4-2.9a8.62,8.62,0,0,1,4.8,3.9c.2-1.5.4-2.7.5-3.9h5.3c0,.4.1.9.1,1.3V40.2c0,1.2-.4,1.6-1.5,1.4h-.1c-1.2,0-2.6.3-3.4-.2s-.5-2-.8-3.1A4.33,4.33,0,0,0,74.3,37.8Zm.1-11.5c-.1-.6-.1-1.6-.3-2.6a8.41,8.41,0,0,0-16.5-.8,12.18,12.18,0,0,0,.2,8c2,5.7,8.5,7.8,13,4.2C73.4,33,74.3,30,74.4,26.3Z"/><path class="cls-1" d="M110.8,12h6c.3,0,.7.7.8,1.1l6.9,21.3a2.52,2.52,0,0,0,.7,1.2c.6-1.9,1.3-3.8,1.9-5.8,1.8-5.5,3.6-10.9,5.3-16.4.3-1,.7-1.6,2-1.5,1.5.1,3,0,4.7,0-.3,1.1-.6,2-.9,2.8-3.4,10.1-6.9,20.2-10.3,30.4a16.25,16.25,0,0,1-4.2,7c-3.4,3-9.7,3-13.2.1a1,1,0,0,1-.3-1.4c.7-1.1,1.3-2.2,2-3.4,2.1,1.3,4.2,2.4,6.6,1s3.2-4,4-6.5c-.1-.1-.2-.3-.2-.2-1.5.1-1.9-.9-2.3-2.1-3.1-8.8-6.2-17.7-9.3-26.5A1.61,1.61,0,0,0,110.8,12Z"/><path class="cls-1" d="M49.4,28.2H27.1c-.6,3.4,2.3,7.6,5.8,8.6,4,1.1,8.1-.1,9.9-3.4a1.13,1.13,0,0,1,.8-.5h5.3a11.85,11.85,0,0,1-7,8.2c-7.6,3.3-20.2.5-20.6-13.4-.2-5.1,1.1-9.7,5.2-13,4.5-3.7,9.6-4.2,14.9-2.2,5,1.9,7.2,5.9,7.9,11A25.23,25.23,0,0,0,49.4,28.2Zm-5.8-4.5a7.1,7.1,0,0,0-3.4-6.2,8.2,8.2,0,0,0-8.9-.1,8.62,8.62,0,0,0-4.1,6.4C32.7,23.7,38.1,23.7,43.6,23.7Z"/><path class="cls-1" d="M86.9,16.7H83.4c-.8,0-1-.3-1-1,.1-1.2,0-2.3,0-3.7h4.5V7.7C86.8,3.1,90-.2,94.5.1c1.6.1,3.3,0,4.9,0,.8,0,1.1.2,1.1,1.1.2,3.9.2,3.9-3.8,4-.5,0-1,.1-1.5.1a2.5,2.5,0,0,0-2.4,2.4c-.1,1.3,0,2.7,0,4.2h7.3V16c0,.2-.6.6-1,.6-1.6.1-3.2,0-4.8,0a9.74,9.74,0,0,0-1.6.1V40.2c0,1-.2,1.4-1.3,1.3a19.3,19.3,0,0,0-3.4,0c-1,0-1.3-.3-1.3-1.3v-22A3,3,0,0,0,86.9,16.7Z"/><path class="cls-1" d="M21.1,36.5v4.2c0,.8-.5.8-1.1.8H1.4c-1,0-1.4-.2-1.4-1.3V1.3A6.64,6.64,0,0,1,.1,0h5a.88.88,0,0,1,.6.7,4.82,4.82,0,0,1,0,1.2V34.7c0,1.7,0,1.7,1.6,1.7H19.2A12.1,12.1,0,0,0,21.1,36.5Z"/><path class="cls-1" d="M113.2,36.6v4.1c0,.3-.4.8-.7.8a25.72,25.72,0,0,1-4.8-.2c-3.1-.6-5-3.2-5-6.6V.2h5.7V32.7c.2,3.5,1,4,3.7,3.8C112.5,36.5,112.8,36.6,113.2,36.6Z"/><path class="cls-1" d="M136,42.2a3.45,3.45,0,0,1,.1-6.9,3.21,3.21,0,0,1,3.2,3.4A3.26,3.26,0,0,1,136,42.2Z"/></g></g></g></svg>