<svg id="Layer_1" data-name="Layer 1" xmlns="http://www.w3.org/2000/svg" viewBox="0 0 295 126.7"><defs><style>.cls-1{fill:#c0c6d9}</style></defs><g id="g908"><g id="g24"><path id="path4" class="cls-1" d="M85.63 76 74 92.05a32.36 32.36 0 0 0 17.78 5.81V78a10.91 10.91 0 0 1-6.15-2z"/><path id="path6" class="cls-1" d="M91.78 50.57v-20A33 33 0 0 0 74 36.37l11.63 16.1a14.09 14.09 0 0 1 6.15-1.9z"/><path id="path8" class="cls-1" d="M111.57 36.37a32.36 32.36 0 0 0-17.78-5.81v19.79a14.7 14.7 0 0 1 6.15 2z"/><path id="path10" class="cls-1" d="M80.15 69.58 61.48 75.5a32 32 0 0 0 11 15.1L84 74.5a12.47 12.47 0 0 1-3.85-4.92z"/><path id="path12" class="cls-1" d="m84 53.7-11.4-16A33.83 33.83 0 0 0 61.59 53l18.56 6.15A14.68 14.68 0 0 1 84 53.7z"/><path id="path14" class="cls-1" d="M79.26 64.21a24.69 24.69 0 0 1 .33-3.13l-18.67-6.15a32.85 32.85 0 0 0-1.34 9.28 30.24 30.24 0 0 0 1.34 9.5l18.67-6.15a10.81 10.81 0 0 1-.33-3.35z"/><path id="path16" class="cls-1" d="m101.62 74.83 11.51 16.1a33.78 33.78 0 0 0 11-15.32l-18.67-6.14a14 14 0 0 1-3.84 5.36z"/><path id="path18" class="cls-1" d="M94 78v19.75a33 33 0 0 0 17.78-5.81L100.16 76A13.29 13.29 0 0 1 94 78z"/><path id="path20" class="cls-1" d="M124.76 54.82 106.09 61a17.29 17.29 0 0 1 .33 3.35 24.69 24.69 0 0 1-.33 3.13l18.67 6.15a32.85 32.85 0 0 0 1.34-9.28 29.8 29.8 0 0 0-1.34-9.53z"/><path id="path22" class="cls-1" d="m105.53 59 18.67-6.15a32 32 0 0 0-11-15.1l-11.62 16a16.32 16.32 0 0 1 3.95 5.25z"/></g><g id="g38"><path id="path26" class="cls-1" d="M142.08 78.74c-3.91 0-5.59-2.57-5.59-5.81v-23.7h4.14V72.6c0 1.67.56 2.46 2.24 2.46h1.9v3.57h-2.57v.11z"/><path id="path28" class="cls-1" d="M147.23 53.59v-4.25h4.47v4.47l-4.47-.22zm.11 25.15v-20.9h4.13v20.9z"/><path id="path30" class="cls-1" d="M162.1 78.74c-3.92 0-5.59-2.79-5.59-5.81V61.42h-2.46v-3.13h2.46v-6.38h4.13v6.38h3.92v3.13h-3.92v11.4a2.18 2.18 0 0 0 2.24 2.46h1.68v3.58h-2.46z"/><path id="path32" class="cls-1" d="M193.06 78.74V66.11c0-3.35-1.9-4.69-4.13-4.69a4.1 4.1 0 0 0-4.25 4.47V79h-4.14V66.11c0-3.35-1.9-4.69-4.13-4.69-2.46 0-4.25 1.45-4.25 4.69v12.63H168v-20.9h4.14v2a7.67 7.67 0 0 1 5.59-2.46 6.82 6.82 0 0 1 5.92 3 8.36 8.36 0 0 1 11.74-1.12c1.68 1.45 2.24 3.58 2.24 5.93v13.44h-4.59z"/><path id="path34" class="cls-1" d="M213.08 78.74v-2a7.86 7.86 0 0 1-5.59 2.46 7.27 7.27 0 0 1-5-1.9c-1.68-1.45-2-3.58-2-5.92V58h4.14v12.58c0 3.36 1.9 4.7 4.14 4.7 2.46 0 4.24-1.45 4.24-4.7V57.84h4.14v20.9z"/><path id="path36" class="cls-1" d="M227.61 79c-3.35 0-6.37-.56-8.72-3l2.79-2.8a8.24 8.24 0 0 0 5.93 2.24c2.57 0 4.47-.89 4.47-3 0-1.45-.78-2.23-2.79-2.46l-3.13-.22c-3.92-.34-6.15-2-6.15-5.81 0-4.14 3.58-6.38 7.82-6.38 3.13 0 5.82.79 7.61 2.46l-2.58 2.57a7.7 7.7 0 0 0-5-1.45c-2.46 0-3.69 1.12-3.69 2.57s.79 2.24 2.8 2.46l3.35.34c3.92.33 6.15 2.23 6.15 5.92-.14 4.29-3.83 6.56-8.86 6.56z"/></g></g></svg>