<?xml version="1.0" encoding="utf-8"?>
<!-- Generator: Adobe Illustrator 26.0.2, SVG Export Plug-In . SVG Version: 6.00 Build 0)  -->
<svg version="1.1" id="Layer_1" xmlns="http://www.w3.org/2000/svg" xmlns:xlink="http://www.w3.org/1999/xlink" x="0px" y="0px"
	 viewBox="0 0 295 126.7" style="enable-background:new 0 0 295 126.7;" xml:space="preserve">
<style type="text/css">
	.st0{fill:#C0C6D9;}
	.st1{fill:none;}
</style>
<g id="_x35_gpiI5.tif">
	<g>
		<path class="st0" d="M65.4,37.1c0,13,0,25.6,0,38.6c5.7-3.2,11.1-6.4,16.7-9.6c0,6.2,0,12.2,0,18.3c-5.5,0-10.9,0-16.6,0
			c0-2.8,0-5.7,0-8.9c-5.7,3.3-11.2,6.4-16.9,9.7c0-0.7,0-1.2,0-1.7c0-11.7,0-23.5,0-35.2c0-1.1,0.3-1.8,1.3-2.4
			C55.1,43.1,60.1,40.2,65.4,37.1z"/>
		<path class="st0" d="M236.5,56.9c0-6,0-12.1,0-18.2c2.9,0,5.7,0,8.6,0c0,15.2,0,30.4,0,45.9c-2.6,0-5.2,0-7.8,0
			c-0.3,0-0.7-0.6-0.7-1c-0.1-1.1,0-2.3,0-3.8c-0.8,0.9-1.2,1.5-1.7,2c-4.7,4.9-13.5,4.8-18.2-0.2c-5.8-6.2-5.6-19.4,0.4-25.4
			C221.9,51.1,231.9,50.5,236.5,56.9z M237.1,68.9c-0.3-1.8-0.4-3.5-0.9-5c-1-3.3-3.5-5.1-7-5.1c-3.6,0-6.1,1.7-7.1,5
			c-1,3.2-1,6.4,0,9.5c0.9,3.1,3.3,4.9,6.3,5.1c3.6,0.2,6.3-1.3,7.5-4.5C236.5,72.4,236.7,70.5,237.1,68.9z"/>
		<path class="st0" d="M129.9,53.1c2.8,0,5.5,0,8.5,0c0,0.7,0,1.4,0,2c0,5.2,0,10.5,0,15.7c0,0.4,0,0.9,0,1.3
			c0.1,4.4,1.8,6.3,5.4,6.4c4.1,0.1,6.8-2.4,6.9-6.5c0.1-5,0-9.9,0-14.9c0-1.3,0-2.6,0-4.1c2.9,0,5.7,0,8.6,0c0,10.4,0,20.8,0,31.3
			c-2.8,0-5.5,0-8.5,0c0-1.4,0-2.8,0-4.7c-0.7,0.9-1.1,1.4-1.5,1.9c-3.5,3.9-8,4.3-12.6,3c-4.4-1.2-6.6-4.7-6.7-9
			c-0.3-7.3-0.2-14.7-0.2-22C129.8,53.5,129.9,53.4,129.9,53.1z"/>
		<path class="st0" d="M195.1,64.4c-2.8,0-5.4,0-8.1,0c-1.5-4.1-3.2-5.4-7.1-5.3c-3.3,0.1-5.9,2.3-6.8,5.9c-0.7,2.9-0.7,5.9,0.2,8.7
			c1.1,3.4,3.8,5.2,7.4,5.1c3.4-0.1,5.6-1.8,6.6-5.3c0.1-0.2,0.1-0.4,0.2-0.7c2.5,0,5.1,0,7.7,0c-0.2,4-1.8,7.2-4.9,9.5
			c-6.2,4.7-17.2,3.8-22.5-1.8c-3.3-3.5-4.2-7.8-4.1-12.3c0.5-14,13.9-18.8,24.3-14.4C192.2,55.6,194.8,59.6,195.1,64.4z"/>
		<path class="st0" d="M99.2,41.4c3.2,0,6.3,0,9.7,0c0,0.8,0,1.5,0,2.2c0,10.5,0,21,0,31.6c0,1.5,0.4,2,1.9,2c4.6-0.1,9.2,0,13.8,0
			c0.6,0,1.2,0,2,0c0,2.5,0,4.9,0,7.4c-9.1,0-18.1,0-27.3,0C99.2,70.2,99.2,55.9,99.2,41.4z"/>
		<path class="st0" d="M208.1,84.5c-2.8,0-5.6,0-8.4,0c0-10.4,0-20.9,0-31.4c2.8,0,5.6,0,8.4,0C208.1,63.6,208.1,73.9,208.1,84.5z"
			/>
		<path class="st0" d="M203.7,48.5c-2.9,0-4.9-1.9-4.9-4.7c0-2.7,2.1-4.7,5-4.7c2.8,0,5,2.1,5,4.7C208.8,46.5,206.6,48.5,203.7,48.5
			z"/>
	</g>
</g>
<rect x="-1" y="-1" class="st1" width="297" height="127"/>
</svg>
