<svg id="Layer_1" xmlns="http://www.w3.org/2000/svg" viewBox="0 0 295 126.7"><style>.st0{fill:#c0c6d9}</style><g id="kzL7qD.tif"><path class="st0" d="M208.2 88.7c-.8 0-1.7 0-2.5-.1-2.7-.3-5.2-1-7.6-2.3-6.4-3.3-10.4-8.5-12-15.5-.4-1.6-.5-3.3-.5-4.9V49.1c0-2.6-1.6-4.9-4.1-5.6-3.5-1.1-7.1 1.3-7.4 4.9-.1 1-.1 2-.1 2.9v2.8h8.6v17H174v.5c0 1.8-.1 3.6-.5 5.4-.7 3-2 5.7-4.2 7.9-2.1 2.1-4.7 3.3-7.6 3.8-1.5.2-3 .2-4.4 0-.1 0-.2-.1-.2-.2v-.1-39.3c0-5.4 1.7-10.2 5.1-14.4 3.5-4.3 7.9-6.9 13.3-8 10.9-2.1 21.5 3.9 25.5 14.2.4 1 .6 2 .9 3 0 .1 0 .1.1.2h5.7v17h-5.2v4.8c0 2.9 1.9 5.2 4.8 5.8.3.1.7.1 1 .1-.1 5.7-.1 11.3-.1 16.9zm-113.3-61h17.2v45.9c0 2.3.3 4.6 1.1 6.8.8 2.4 2.1 4.5 4.1 6.2.1.1.3.2.4.3.1.1.3.2.4.3-.7.6-1.4 1-2.3 1.4-2.3 1-4.8 1.4-7.3 1.2-3.2-.2-5.9-1.3-8.3-3.4-1.9-1.6-3.1-3.6-4-5.9-.7-1.9-1.1-3.8-1.2-5.8v-.4c-.1-15.4-.1-31-.1-46.6z"/><path class="st0" d="M132 44.2v24.9c0 1.3.8 2.3 2.1 2.6 1.6.3 3.1-.8 3.2-2.4v-.4-24.3-.4h17V84c0 3.8-.8 7.5-2.5 10.9-2.8 5.6-7.3 9.2-13.4 10.7-2.9.7-5.8.9-8.8.8-3.1-.1-6.1-.7-9.1-1.5-.2-.1-.3-.1-.3-.3v-15-.3c.6.2 1.2.4 1.9.6 2.3.7 4.6 1.2 7 1.1 2.1 0 4.1-.5 5.9-1.5 1.4-.8 2.4-2 2.8-3.6 0-.2.1-.3.1-.4-.7.4-1.4.9-2.2 1.3-2.1 1.1-4.4 1.6-6.8 1.5-2.3-.1-4.6-.6-6.7-1.6-3.3-1.6-5.4-4.2-6.4-7.7-.5-1.6-.7-3.3-.7-5.1V44.5v-.2c5.6-.1 11.2-.1 16.9-.1z"/></g></svg>