<?xml version="1.0" encoding="utf-8"?>
<!-- Generator: Adobe Illustrator 26.0.2, SVG Export Plug-In . SVG Version: 6.00 Build 0)  -->
<svg version="1.1" id="Layer_1" xmlns="http://www.w3.org/2000/svg" xmlns:xlink="http://www.w3.org/1999/xlink" x="0px" y="0px"
	 viewBox="0 0 48 48" style="enable-background:new 0 0 48 48;" xml:space="preserve">
<style type="text/css">
	.st0{clip-path:url(#SVGID_00000170991994820734602440000003953385064538548357_);}
	.st1{fill:none;stroke:#242A35;stroke-width:3;stroke-linecap:round;stroke-linejoin:round;}
	.st2{fill:none;}
</style>
<g id="Layer_2_00000074434420387057135360000017667954531087051149_">
	<g id="Layer_1-2">
		<g>
			<defs>
				<rect id="SVGID_1_" x="4.5" width="39" height="48"/>
			</defs>
			<clipPath id="SVGID_00000092416156850946368530000011480525562707743120_">
				<use xlink:href="#SVGID_1_"  style="overflow:visible;"/>
			</clipPath>
			<g style="clip-path:url(#SVGID_00000092416156850946368530000011480525562707743120_);">
				<path class="st1" d="M42,46.5H10.5C8,46.5,6,44.5,6,42"/>
				<path class="st1" d="M12,1.5c-3.3,0-6,2.7-6,6V42c0-2.5,2-4.5,4.5-4.5h30c0.8,0,1.5-0.7,1.5-1.5V3c0-0.8-0.7-1.5-1.5-1.5H12z"/>
				<line class="st1" x1="39" y1="46.5" x2="39" y2="37.5"/>
				<path class="st1" d="M15,31.5c0-5,4-9,9-9s9,4,9,9H15z"/>
				<circle class="st1" cx="24" cy="16.5" r="6"/>
			</g>
		</g>
		<rect class="st2" width="48" height="48"/>
	</g>
</g>
</svg>
