<svg xmlns="http://www.w3.org/2000/svg" viewBox="0 0 251.9 33.32"><defs><style>.cls-1{fill:#242a35;}</style></defs><g id="Layer_2" data-name="Layer 2"><g id="Layer_1-2" data-name="Layer 1"><g id="mzABw0.tif"><path class="cls-1" d="M164.7,33.32c0-.4-.1-.9-.1-1.3V15.62c0-1,.1-1.6-1.3-1.5-.2,0-.6-.3-.6-.5a9.64,9.64,0,0,1,0-2.4.9.9,0,0,1,.6-.6,18.19,18.19,0,0,1,3.3,0c1.3.1,1.6.4,2,1.8a5.83,5.83,0,0,1,4.5-2.1,6.63,6.63,0,0,1,6.5,3.4,10.11,10.11,0,0,1-.2,10.6,6.71,6.71,0,0,1-9.9,1.5,7.37,7.37,0,0,1-.6-.5v7.1a2.92,2.92,0,0,1-.2.9Zm11.9-14.4a6.9,6.9,0,0,0-1.1-3.5,3.66,3.66,0,0,0-6.2.5,7,7,0,0,0-.4,5.3,3.75,3.75,0,0,0,7.2,0A12,12,0,0,0,176.6,18.92Z"/><path class="cls-1" d="M251.8,19.52H240.7a4.37,4.37,0,0,0,3.7,4.1c1.4.3,2.4,0,5.6-1.7.5.8,1,1.6,1.5,2.5.1.1-.1.5-.2.7-3.5,2.8-9.2,3.1-12.6-.4a9,9,0,0,1,.2-12.2,7.81,7.81,0,0,1,8.1-1.9c2.8.8,4.2,2.8,4.8,5.5,0,.1.1.3.1.4C251.8,17.52,251.8,18.52,251.8,19.52Zm-11-2.9h5.9c.8,0,.9-.1.7-.9a2.88,2.88,0,0,0-3.2-2.1A3.62,3.62,0,0,0,240.8,16.62Z"/><path class="cls-1" d="M49.2.82c-.3.3-.6.5-.8.7-1.9,2.4-3.8,4.9-5.8,7.2a30.65,30.65,0,0,1-9.5,7.2,18.42,18.42,0,0,1-8.6,2A17,17,0,0,1,8.4,5.62c-.1-.4-.4-1-.6-1a4.88,4.88,0,0,0-2.1.3c-.7.3-.9,1.1-.9,2A15.86,15.86,0,0,0,6.5,13a20,20,0,0,0,15.3,11.4c5.6,1,10.7-.8,15.3-4,4.8-3.4,8.3-7.9,11.3-12.9a8.7,8.7,0,0,0,.8-1.4c0,.4.1.6.1.8v21.6c0,2.1-.7,2.8-2.8,2.8H2.7c-2.1,0-2.7-.6-2.7-2.7v-26C0,.72.7,0,2.6,0H46.7A2.74,2.74,0,0,1,49.2.82Z"/><path class="cls-1" d="M124.9,17c.9,1.7,1.7,3.3,2.6,4.9.4.8.8,1.5,1.9,1.4a.65.65,0,0,1,.5.6,10.45,10.45,0,0,1,0,2.5.9.9,0,0,1-.6.6c-1,0-2,0-3-.1s-1.4-.8-1.8-1.6c-.9-1.7-1.8-3.4-2.6-5.2a2.29,2.29,0,0,0-2.4-1.5c-2,.1-2,0-2,2v5.5c0,.8-.3,1-1,1h-2.2c-1.1,0-1.1,0-1.1-1.2V5.32c0-.7.2-1,.9-1h7.1a11.15,11.15,0,0,1,3.1.5,6.16,6.16,0,0,1,4.1,5.5c.2,2.7-.5,5-3,6.5A1.19,1.19,0,0,0,124.9,17Zm-7.6-8.9v6.3c0,.2.4.5.6.5h3.2a2.85,2.85,0,0,0,2.2-1.3,4.46,4.46,0,0,0,0-4.2,2.24,2.24,0,0,0-1.9-1.2A27.38,27.38,0,0,0,117.3,8.12Z"/><path class="cls-1" d="M78.3,25.22a34,34,0,0,1-3.4,1.6A10.73,10.73,0,0,1,61,18.22c-.8-4.4.1-8.3,3.5-11.4A11.56,11.56,0,0,1,73.9,4a11.69,11.69,0,0,1,5.4,1.9c.4.3.7.5,1.2.9-.8,1-1.6,2-2.2,2.9a26,26,0,0,0-4.4-1.6,7.08,7.08,0,0,0-8.7,6.8,8.21,8.21,0,0,0,2.3,6.5c2.7,2.6,7.4,2.5,10.3,0,.4-.4.6-2,.2-2.3a1.69,1.69,0,0,0-1-.3c-.7,0-.9-.2-.8-.8v-2.3a.64.64,0,0,1,.5-.5h3.7A1.65,1.65,0,0,1,82.1,17v9.4c0,.5-.2.6-.6.6H79.2c-.5,0-.8-.2-.8-.7S78.3,25.62,78.3,25.22Z"/><path class="cls-1" d="M207.4,13.22a6.3,6.3,0,0,1,4.5-2.8c3.2-.4,6.6.6,6.7,5.4.1,2.2.1,4.3.1,6.5,0,1,.1,1.2,1.1,1.1.7,0,.9.2.8.8v2c0,.5-.2.7-.7.7-1.2,0-2.4,0-3.6-.1s-1.8-.7-1.9-2,0-2.5,0-3.8v-4.3c0-2.2-1.3-3.1-3.4-2.7a4.47,4.47,0,0,0-3.6,4.1c-.1,2.4-.1,4.7-.1,7.1v.2c.1,1.3,0,1.3-1.3,1.3h-2c-.7,0-.9-.2-.9-.9V15c0-.7-.3-1.1-1-1s-1-.2-1-.9a13.33,13.33,0,0,0,0-2c0-.2.3-.6.5-.6a20.45,20.45,0,0,1,3.5,0c1.3.1,1.8.6,1.9,1.9A1.52,1.52,0,0,1,207.4,13.22Z"/><path class="cls-1" d="M200.4,18.92c0,4.9-3.9,8.5-9,8.5s-8.9-3.7-8.9-8.5,3.8-8.5,8.9-8.5S200.4,13.92,200.4,18.92Zm-9-5a4.68,4.68,0,0,0-4.7,4.9,4.67,4.67,0,0,0,4.9,4.9,4.75,4.75,0,0,0,4.6-5A4.68,4.68,0,0,0,191.4,13.92Z"/><path class="cls-1" d="M88.4,19.62a4.27,4.27,0,0,0,3.7,4.1A7.41,7.41,0,0,0,97.6,22c.5.9,1.1,1.7,1.5,2.6.1.1-.1.5-.2.7-3.5,2.8-9.1,3-12.5-.3a9.05,9.05,0,0,1-.1-12.2c3.2-3.4,9.3-3.2,11.8.5a8.75,8.75,0,0,1,1.4,5.5c0,.7-.3,1-1.1.9h-9A3.08,3.08,0,0,0,88.4,19.62Zm.1-3h6.6a2.85,2.85,0,0,0-2.4-3A3.73,3.73,0,0,0,88.5,16.62Z"/><path class="cls-1" d="M134.9,19.62a4.49,4.49,0,0,0,2,3.4,4.33,4.33,0,0,0,3.8.6c1.2-.4,2.4-.9,3.7-1.4.4.7.9,1.5,1.4,2.4.1.2-.2.6-.4.8a10,10,0,0,1-6.5,2,8.48,8.48,0,0,1-6.7-3.5,8.92,8.92,0,0,1-.6-9.3c1.5-3,4.1-4.2,7.3-4.2a6.87,6.87,0,0,1,7.1,6.8v1.6c0,.6-.2.9-.9.8H134.9Zm.3-3h5.9c.8,0,.9-.1.7-.9a2.82,2.82,0,0,0-3.2-2.1A3.45,3.45,0,0,0,135.2,16.62Z"/><path class="cls-1" d="M150,21.72a14.31,14.31,0,0,0,1.5,1.1A6.15,6.15,0,0,0,155,24a3.08,3.08,0,0,0,1.3-.3,1.11,1.11,0,0,0,.2-2,21,21,0,0,0-2.6-1.3,22.45,22.45,0,0,1-2.7-1.3,4.57,4.57,0,0,1-2.6-4.6c.2-2,1.6-3.4,3.9-4a9.57,9.57,0,0,1,5.8.3,3.28,3.28,0,0,1,2.3,4.1c0,.2-.4.5-.6.5a19.22,19.22,0,0,1-2.4,0c-.4,0-.6-.1-.6-.6a1.12,1.12,0,0,0-1-1.2,10.48,10.48,0,0,0-2.5.1c-.3.1-.8.6-.8.9a2,2,0,0,0,.6,1.2,12.44,12.44,0,0,0,2,1c.9.4,1.8.7,2.6,1.1,2.4,1.1,3.5,2.8,3.2,4.8a5.1,5.1,0,0,1-4.5,4.4,9.27,9.27,0,0,1-8-2.1c-.5-.4-.5-.8-.1-1.3A14.91,14.91,0,0,0,150,21.72Z"/><path class="cls-1" d="M223.8,21.72c1.3,1.1,2.5,2.1,4,2.3a4.08,4.08,0,0,0,1.9-.1,1.67,1.67,0,0,0,.9-1.1,1.43,1.43,0,0,0-.6-1.2c-1-.6-2.2-1-3.2-1.5a22.31,22.31,0,0,1-3.3-2,4.09,4.09,0,0,1,.7-6.6,8.54,8.54,0,0,1,8.6-.1,3,3,0,0,1,1.4,3.7.82.82,0,0,1-.6.4,19.22,19.22,0,0,1-2.4,0c-.2,0-.5-.3-.6-.6a1.28,1.28,0,0,0-1.1-1.2,5.45,5.45,0,0,0-2.2.1,1.3,1.3,0,0,0-.9,1c-.1.4.3.9.6,1.2a21.4,21.4,0,0,0,2.2,1,39.71,39.71,0,0,1,3.6,1.7,4.32,4.32,0,0,1-.2,7.5c-2.6,1.7-6.8,1.4-9.6-.7-1.4-1-1.4-1-.4-2.4A8.06,8.06,0,0,0,223.8,21.72Z"/><path class="cls-1" d="M107,8.52c0,.6-.2,1.5.2,1.9s1.2.2,1.8.3a2.09,2.09,0,0,1,1.6,3,.78.78,0,0,1-.7.3h-2.2c-.5,0-.7.2-.7.7V21c0,1.4,1.1,2.3,2.8,2.4,1.1,0,1.1-.1,1.1,1.2v1.2c0,1.2,0,1.2-1.3,1.2a7.49,7.49,0,0,1-2.1-.2c-3.2-.7-4.7-2.6-4.8-5.8v-6.1c0-.7-.2-1-1-1-1.1,0-1.1,0-1.1-1.2v-.4c0-1.6,0-1.6,1.6-1.8.5,0,.6-.2.6-.7V6.72c0-.5.2-.7.7-.7h2.8c.5,0,.7.2.7.7v1.8Z"/></g></g></g></svg>