<svg xmlns="http://www.w3.org/2000/svg" viewBox="0 0 113.6 113.6"><defs><style>.cls-1{fill:#5c5cff;}.cls-2{fill:#e7ecf3;}.cls-3{fill:#242a35;}</style></defs><g id="Layer_2" data-name="Layer 2"><g id="Layer_1-2" data-name="Layer 1"><rect class="cls-1" x="20.4" y="26.54" width="71.44" height="59.16"/><path class="cls-2" d="M56.8,0a56.8,56.8,0,1,0,56.8,56.8A56.89,56.89,0,0,0,56.8,0Z"/><path class="cls-3" d="M78.21,49.41h0l-22.4,22.3a4.38,4.38,0,0,1-3.1,1.41h-.07a4.63,4.63,0,0,1-3.25-1.41l-11.2-11.2A4.54,4.54,0,0,1,36.8,57.3a4.54,4.54,0,0,1,7.81-3.21l8,8L71.86,42.83a3.83,3.83,0,0,1,2.52-1.22A4.67,4.67,0,0,1,78.21,43a4.38,4.38,0,0,1,1.41,3.1A4.58,4.58,0,0,1,78.21,49.41Z"/></g></g></svg>